<svg xmlns="http://www.w3.org/2000/svg" width="16" height="16.009" viewBox="0 0 16 16.009">
  <path id="Combined_Shape1" data-name="Combined Shape1" d="M2.741,14.314l-1.7,1.7L0,14.963l1.7-1.7L0,11.572l1.048-1.046,1.7,1.7,1.466-1.466A6.652,6.652,0,1,1,16,5.517l-1.458.252a5.169,5.169,0,1,0-3.1,5.666l.571,1.364a6.654,6.654,0,0,1-6.771-.985L3.787,13.268l1.7,1.7L4.438,16.009Zm9.818-3.523a5.23,5.23,0,0,0,.928-.9l1.152.926a6.687,6.687,0,0,1-1.189,1.155Z" transform="translate(16 16.009) rotate(180)" fill="#fe75c4"/>
</svg>
