<svg xmlns="http://www.w3.org/2000/svg" width="182.842" height="129.763" viewBox="0 0 182.842 129.763">
  <g id="Group_18" data-name="Group 18" transform="translate(-2.107 -0.515)">
    <g id="Group_4" data-name="Group 4" transform="translate(0.5)">
      <g id="Group_3" data-name="Group 3" transform="translate(9 21.738)">
        <g id="_031-smartphone_copy" data-name="031-smartphone copy" transform="translate(0.27 0.605)">
          <g id="Group_2" data-name="Group 2" transform="translate(0.335 0.15)">
            <path id="Shape" d="M14.625,0H146.247c8.078,0,14.625,5.25,14.625,11.727V82.085c0,6.476-6.548,11.726-14.625,11.726H14.625C6.548,93.811,0,88.561,0,82.085V11.727C0,5.25,6.548,0,14.625,0Z" transform="translate(0.546 0.401)" fill="#edf3fa"/>
          </g>
        </g>
      </g>
      <g id="_058-video-conference" data-name="058-video-conference" transform="translate(0.862 0.184)">
        <path id="Shape-2" data-name="Shape" d="M7.366,4.987A28.841,28.841,0,0,0,0,24.275a7.541,7.541,0,0,0,7.541,7.542H27.333a7.542,7.542,0,0,0,6.746-4.168l5.549-6.287,5.366,6.287a7.543,7.543,0,0,0,6.746,4.168h1.052a7.542,7.542,0,0,0,7.542-7.542A31.364,31.364,0,0,0,53.743,4.987C48.215-1.928,12.9-1.392,7.366,4.987Z" transform="translate(85.908 69.213) rotate(180)" fill="#163969"/>
        <path id="Shape-3" data-name="Shape" d="M17.31,8.655A8.655,8.655,0,1,1,8.655,0,8.655,8.655,0,0,1,17.31,8.655Z" transform="translate(73.05 34.953)" fill="#ffe0a6"/>
        <path id="Shape-4" data-name="Shape" d="M45.119,0,0,20.856C6.389,41.538,28.375,58.3,28.375,58.3h72.542V37.378a17.407,17.407,0,0,0-9.662-15.909Z" transform="translate(6.753 69.573)" fill="#dfe5ff"/>
        <path id="Shape-5" data-name="Shape" d="M4.328,0H30.292a4.328,4.328,0,1,1,0,8.655H4.328A4.328,4.328,0,0,1,4.328,0Z" transform="translate(47.086 119.744)" fill="#ccd4ff"/>
        <path id="Shape-6" data-name="Shape" d="M8.654,0h8.655a8.654,8.654,0,1,1,0,17.309H8.654A8.654,8.654,0,0,1,8.654,0Z" transform="translate(64.396 111.09)" fill="#ccd4ff"/>
        <path id="Shape-7" data-name="Shape" d="M51.929,11.128,25.965,0,0,11.128V17.31a25.965,25.965,0,0,0,51.929,0Z" transform="translate(29.776 69.573)" fill="#ffe0a6"/>
        <path id="Shape-8" data-name="Shape" d="M2.452,2.659a8.627,8.627,0,0,0,6.2,14.651,8.655,8.655,0,0,1,0,17.31A8.538,8.538,0,0,0,.3,41.779a25.693,25.693,0,0,0,8.354,1.5A25.964,25.964,0,0,0,34.619,17.31V11.128L8.655,0Z" transform="translate(47.086 69.573)" fill="#f1c26b"/>
        <path id="Shape-9" data-name="Shape" d="M25.816.619S10.9,8.655,7.091,10.518C.779,14.662,0,28.2,0,28.2v18.2a10,10,0,0,0,10,10H37.686V8.655A8.655,8.655,0,0,0,25.816.619Z" transform="translate(0.745 73.701)" fill="#3d99ff"/>
        <path id="Shape-10" data-name="Shape" d="M11.869.619,26.394,8.828A17.312,17.312,0,0,1,37.274,24.9v20.89a10,10,0,0,1-10,10H0V8.655A8.655,8.655,0,0,1,11.869.619Z" transform="translate(73.05 73.701)" fill="#3d99ff"/>
        <path id="Shape-11" data-name="Shape" d="M12.983,0A12.983,12.983,0,1,1,0,12.983,12.983,12.983,0,0,1,12.983,0Z" transform="translate(81.705 86.883)" fill="#fff" opacity="0.182"/>
        <path id="Shape-12" data-name="Shape" d="M0,0H17.31V34.619H0Z" transform="translate(47.086 60.919)" fill="#ffe0a6"/>
        <path id="Shape-13" data-name="Shape" d="M8.655,17.309a8.655,8.655,0,0,1,8.655,8.655V3.708L8.655,0l-6.2,2.657a8.627,8.627,0,0,0,6.2,14.651Z" transform="translate(47.086 69.574)" fill="#f1c26b"/>
        <path id="Shape-14" data-name="Shape" d="M17.309,8.655A8.654,8.654,0,1,1,8.654,0,8.655,8.655,0,0,1,17.309,8.655Z" transform="translate(21.122 34.953)" fill="#ffe0a6"/>
        <path id="Shape-15" data-name="Shape" d="M25.964,0A25.964,25.964,0,0,1,51.928,25.964V51.929A25.964,25.964,0,0,1,0,51.929V25.964A25.963,25.963,0,0,1,25.964,0Z" transform="translate(29.777 0.334)" fill="#ffd079"/>
        <path id="Shape-16" data-name="Shape" d="M0,25.968V51.933A25.732,25.732,0,0,0,3.858,65.386,25.836,25.836,0,0,0,43.274,43.278V17.314A25.72,25.72,0,0,0,39.418,3.861,25.838,25.838,0,0,0,0,25.968Z" transform="translate(29.776 0.331)" fill="#ffe0a6"/>
        <path id="Shape-17" data-name="Shape" d="M37.921.074C20.374-.873,0,7.057,0,35.63H31.367c3.279,0,5.708-2.067,8.142-4.075l5.967-5.348,5.558,5.348c2.721,2.3,5.062,4.075,8.341,4.075h9.863c0-9.423-.7-14.675-4.648-19.971C61.4,11.375,54.355,9.267,54.355,9.267S47.5.591,37.921.074Z" transform="translate(21.122 0.542)" fill="#163969"/>
        <path id="Shape-18" data-name="Shape" d="M16.541.768C14.576-1.2,9.452.74,5.1,5.1S-1.2,14.576.768,16.542s7.089.028,11.445-4.329S18.507,2.734,16.541.768Z" transform="translate(27.657 7.195)" fill="#7d8fac"/>
      </g>
    </g>
    <path id="Shape-19" data-name="Shape" d="M8.542,0H54.17a8.542,8.542,0,0,1,0,17.084H8.542A8.542,8.542,0,1,1,8.542,0Z" transform="translate(122.238 44.43)" opacity="0.12"/>
    <path id="Shape-20" data-name="Shape" d="M8.542,0H54.17a8.542,8.542,0,0,1,0,17.084H8.542A8.542,8.542,0,1,1,8.542,0Z" transform="translate(122.238 87.141)" opacity="0.12"/>
    <path id="Shape-21" data-name="Shape" d="M54.173,0H8.547a8.542,8.542,0,0,0-.01,17.084H54.174A8.542,8.542,0,0,0,54.173,0Z" transform="translate(122.233 35.887)" fill="#dfe5ff"/>
    <path id="Shape-22" data-name="Shape" d="M54.172,0a8.542,8.542,0,0,1,0,17.085H8.545A8.542,8.542,0,0,1,8.538,0Z" transform="translate(122.236 78.598)" fill="#ffea21"/>
    <path id="Shape-23" data-name="Shape" d="M4.271,0H41.356a4.271,4.271,0,0,1,0,8.542H4.271A4.271,4.271,0,0,1,4.271,0Z" transform="translate(134.78 35.887)" fill="#eff2ff"/>
    <path id="Shape-24" data-name="Shape" d="M4.271,0H41.356a4.271,4.271,0,0,1,0,8.542H4.271A4.271,4.271,0,0,1,4.271,0Z" transform="translate(134.78 78.598)" fill="#ffffc5"/>
  </g>
</svg>
